<svg xmlns="http://www.w3.org/2000/svg" viewBox="0 0 64 64" width="64" height="64">
  <!-- Green circular top part -->
  <circle cx="32" cy="32" r="28" fill="#4CAF50"/>
  
  <!-- Blue location pin bottom -->
  <path d="M 10 48 Q 32 58 54 48 L 32 64 Z" fill="#1E3A8A"/>
  
  <!-- White handshake in center -->
  <g transform="translate(32,32)" fill="#FFFFFF">
    <!-- Left hand coming from top-left -->
    <path d="M -12 -8 Q -15 -12 -18 -8 Q -20 -5 -15 -2 L -6 3 Q -3 5 0 3 L 8 0"/>
    
    <!-- Right hand coming from top-right -->
    <path d="M 8 0 Q 12 -5 18 -2 Q 20 0 20 5 Q 20 8 15 10 L 3 14 Q 0 15 -5 14 L -12 12"/>
    
    <!-- Interlocked fingers as white ovals -->
    <ellipse cx="-1" cy="5" rx="2" ry="3" fill="#FFFFFF"/>
    <ellipse cx="3" cy="7" rx="2" ry="3" fill="#FFFFFF"/>
    <ellipse cx="7" cy="5" rx="2" ry="3" fill="#FFFFFF"/>
    <ellipse cx="11" cy="3" rx="2" ry="3" fill="#FFFFFF"/>
    <ellipse cx="13" cy="1" rx="2" ry="3" fill="#FFFFFF"/>
    
    <!-- Additional finger segments -->
    <ellipse cx="-5" cy="3" rx="1.5" ry="2.5" fill="#FFFFFF"/>
    <ellipse cx="5" cy="9" rx="1.5" ry="2.5" fill="#FFFFFF"/>
  </g>
</svg>