<svg xmlns="http://www.w3.org/2000/svg" viewBox="0 0 64 64" width="64" height="64">
  <!-- Clean circular background -->
  <circle cx="32" cy="32" r="30" fill="#22c55e" stroke="#ffffff" stroke-width="2"/>
  
  <!-- Simple handshake icon -->
  <g transform="translate(32,32)" fill="#ffffff">
    <!-- Left hand -->
    <path d="M-12,-6 Q-15,-8 -18,-6 Q-20,-4 -18,-2 L-8,2 Q-6,3 -4,2 L2,0"/>
    
    <!-- Right hand -->
    <path d="M2,0 Q4,-2 6,-1 Q8,0 8,2 Q8,4 6,5 L0,8 Q-2,9 -4,8 L-12,6"/>
    
    <!-- Connection points -->
    <circle cx="-1" cy="1" r="1.5"/>
    <circle cx="1" cy="2" r="1.5"/>
    <circle cx="4" cy="1" r="1.5"/>
    <circle cx="6" cy="0" r="1.5"/>
  </g>
  
  <!-- Location pin bottom -->
  <path d="M 16 48 Q 32 56 48 48 L 48 58 Q 32 62 16 58 Z" fill="#1e40af"/>
</svg>